# xmcd CD database file
#
# Track frame offsets:
#	150
#	22895
#	47092
#	64796
#	84071
#	107249
#	135362
#	162000
#	181144
#	203319
#	219910
#	241675
#	265060
#	287272
#
# Disc length: 4133 seconds
#
# Revision: 3
# Processed by: cddbd v1.5.2PL0 Copyright (c) Steve Scherf et al.
# Submitted via: CDex 1.51
#
DISCID=a010230e
DTITLE=Chico Banks - Candy Lickin' Man
DYEAR=1997
DGENRE=Blues
TTITLE0=Red Dress
TTITLE1=Candy Lickin' Man
TTITLE2=Down The Road I Go
TTITLE3=It Must Be Love
TTITLE4=Angel Of Mercy
TTITLE5=Soul Serenade
TTITLE6=All Your Love
TTITLE7=Careless Things We Do
TTITLE8=Got To Be Some Changes Made
TTITLE9=You're Fine
TTITLE10=Groove Me
TTITLE11=The Sky Is Crying
TTITLE12=Truck Load Of Lovin'
TTITLE13=Call My Job
EXTD=YEAR: 1997
EXTT0=
EXTT1=
EXTT2=
EXTT3=
EXTT4=
EXTT5=
EXTT6=
EXTT7=
EXTT8=
EXTT9=
EXTT10=
EXTT11=
EXTT12=
EXTT13=
PLAYORDER=
